<svg xmlns="http://www.w3.org/2000/svg" xmlns:xlink="http://www.w3.org/1999/xlink" width="488" height="326pt" viewBox="0 0 366 326"><g id="graph0" class="graph" transform="scale(1 1) rotate(0) translate(4 322)"><title>keys</title><polygon fill="#fff" stroke="none" points="-4 4 -4 -322 362 -322 362 4 -4 4"/><g id="node1" class="node"><title>3225050</title><g id="a_node1"><a xlink:href="tlf3225050.svg" xlink:title="receive_message"><ellipse cx="97" cy="-300" fill="none" stroke="#000" rx="70.024" ry="18"/><text x="97" y="-295.8" font-family="Times,serif" font-size="14" text-anchor="middle">receive_message</text></a></g></g><g id="node2" class="node"><title>3225005</title><polygon fill="none" stroke="#000" points="230.396 0 230.396 -176 357.604 -176 357.604 0 230.396 0"/><text x="294" y="-160.8" font-family="Times,serif" font-size="14" text-anchor="middle">keys</text><polyline fill="none" stroke="#000" points="230.396 -154 357.604 -154"/><text x="294" y="-138.8" font-family="Times,serif" font-size="14" text-anchor="middle">sequential scans: 8</text><polyline fill="none" stroke="#000" points="230.396 -132 357.604 -132"/><text x="294" y="-116.8" font-family="Times,serif" font-size="14" text-anchor="middle">avg seq tuples: 2.00</text><polyline fill="none" stroke="#000" points="230.396 -110 357.604 -110"/><text x="294" y="-94.8" font-family="Times,serif" font-size="14" text-anchor="middle">index scans: 22</text><polyline fill="none" stroke="#000" points="230.396 -88 357.604 -88"/><text x="294" y="-72.8" font-family="Times,serif" font-size="14" text-anchor="middle">avg idx tuples: 1.00</text><polyline fill="none" stroke="#000" points="230.396 -66 357.604 -66"/><text x="294" y="-50.8" font-family="Times,serif" font-size="14" text-anchor="middle">inserted rows: 0</text><polyline fill="none" stroke="#000" points="230.396 -44 357.604 -44"/><text x="294" y="-28.8" font-family="Times,serif" font-size="14" text-anchor="middle">updated rows: 0</text><polyline fill="none" stroke="#000" points="230.396 -22 357.604 -22"/><text x="294" y="-6.8" font-family="Times,serif" font-size="14" text-anchor="middle">deleted rows: 0</text></g><g id="edge1" class="edge"><title>3225050-&gt;3225005:name</title><path fill="none" stroke="#000" d="M160.015,-292.033C172.471,-287.988 184.602,-281.961 194,-273 227.757,-240.812 186.87,-176.186 219.915,-166.285"/><polygon fill="#000" stroke="#000" points="220.523 -169.736 230 -165 219.638 -162.792 220.523 -169.736"/></g><g id="node3" class="node"><title>3225046</title><g id="a_node3"><a xlink:href="tlf3225046.svg" xlink:title="encrypt_sign"><ellipse cx="97" cy="-246" fill="none" stroke="#000" rx="55.577" ry="18"/><text x="97" y="-241.8" font-family="Times,serif" font-size="14" text-anchor="middle">encrypt_sign</text></a></g></g><g id="edge2" class="edge"><title>3225046-&gt;3225005:name</title><path fill="none" stroke="#000" d="M148.364,-238.869C164.045,-234.881 180.695,-228.67 194,-219 213.869,-204.559 205.088,-175.554 219.855,-167.262"/><polygon fill="#000" stroke="#000" points="221.001 -170.592 230 -165 219.478 -163.76 221.001 -170.592"/></g><g id="node4" class="node"><title>3225052</title><g id="a_node4"><a xlink:href="tlf3225052.svg" xlink:title="decode_delivery_receipt"><ellipse cx="97" cy="-192" fill="none" stroke="#000" rx="97.043" ry="18"/><text x="97" y="-187.8" font-family="Times,serif" font-size="14" text-anchor="middle">decode_delivery_receipt</text></a></g></g><g id="edge3" class="edge"><title>3225052-&gt;3225005:name</title><path fill="none" stroke="#000" d="M148.595,-176.686C169.918,-171.353 195.388,-166.406 219.678,-165.252"/><polygon fill="#000" stroke="#000" points="220.088 -168.743 230 -165 219.917 -161.745 220.088 -168.743"/></g><g id="node5" class="node"><title>3225047</title><g id="a_node5"><a xlink:href="tlf3225047.svg" xlink:title="decrypt_verify"><ellipse cx="97" cy="-138" fill="none" stroke="#000" rx="62.323" ry="18"/><text x="97" y="-133.8" font-family="Times,serif" font-size="14" text-anchor="middle">decrypt_verify</text></a></g></g><g id="edge4" class="edge"><title>3225047-&gt;3225005:name</title><path fill="none" stroke="#000" d="M140.058,-151.105C162.957,-157.231 192.197,-163.467 219.884,-164.758"/><polygon fill="#000" stroke="#000" points="219.919 -168.259 230 -165 220.087 -161.261 219.919 -168.259"/></g><g id="node6" class="node"><title>3225048</title><g id="a_node6"><a xlink:href="tlf3225048.svg" xlink:title="create_message"><ellipse cx="97" cy="-84" fill="none" stroke="#000" rx="65.68" ry="18"/><text x="97" y="-79.8" font-family="Times,serif" font-size="14" text-anchor="middle">create_message</text></a></g></g><g id="edge5" class="edge"><title>3225048-&gt;3225005:name</title><path fill="none" stroke="#000" d="M154.344,-92.7512C168.198,-96.7433 182.376,-102.552 194,-111 213.869,-125.441 205.088,-154.446 219.855,-162.738"/><polygon fill="#000" stroke="#000" points="219.478 -166.24 230 -165 221.001 -159.408 219.478 -166.24"/></g><g id="node7" class="node"><title>3225051</title><g id="a_node7"><a xlink:href="tlf3225051.svg" xlink:title="read_message"><ellipse cx="97" cy="-30" fill="none" stroke="#000" rx="59.91" ry="18"/><text x="97" y="-25.8" font-family="Times,serif" font-size="14" text-anchor="middle">read_message</text></a></g></g><g id="edge6" class="edge"><title>3225051-&gt;3225005:name</title><path fill="none" stroke="#000" d="M153.521,-36.0382C168.184,-40.01 182.973,-46.4861 194,-57 227.757,-89.188 186.87,-153.814 219.915,-163.715"/><polygon fill="#000" stroke="#000" points="219.638 -167.208 230 -165 220.523 -160.264 219.638 -167.208"/></g></g></svg>