<svg xmlns="http://www.w3.org/2000/svg" xmlns:xlink="http://www.w3.org/1999/xlink" width="364pt" height="245pt" viewBox="0 0 364 245"><g id="graph0" class="graph" transform="scale(1 1) rotate(0) translate(4 241)"><title>files</title><polygon fill="#fff" stroke="none" points="-4 4 -4 -241 360 -241 360 4 -4 4"/><g id="node1" class="node"><title>3225050</title><g id="a_node1"><a xlink:href="tlf3225050.svg" xlink:title="receive_message"><ellipse cx="97" cy="-219" fill="none" stroke="#000" rx="70.024" ry="18"/><text x="97" y="-214.8" font-family="Times,serif" font-size="14" text-anchor="middle">receive_message</text></a></g></g><g id="node2" class="node"><title>3225023</title><polygon fill="none" stroke="#000" points="229.783 0 229.783 -176 356.217 -176 356.217 0 229.783 0"/><text x="293" y="-160.8" font-family="Times,serif" font-size="14" text-anchor="middle">files</text><polyline fill="none" stroke="#000" points="229.783 -154 356.217 -154"/><text x="293" y="-138.8" font-family="Times,serif" font-size="14" text-anchor="middle">sequential scans: 0</text><polyline fill="none" stroke="#000" points="229.783 -132 356.217 -132"/><text x="293" y="-116.8" font-family="Times,serif" font-size="14" text-anchor="middle">avg seq tuples: 0</text><polyline fill="none" stroke="#000" points="229.783 -110 356.217 -110"/><text x="293" y="-94.8" font-family="Times,serif" font-size="14" text-anchor="middle">index scans: 11</text><polyline fill="none" stroke="#000" points="229.783 -88 356.217 -88"/><text x="293" y="-72.8" font-family="Times,serif" font-size="14" text-anchor="middle">avg idx tuples: 0.91</text><polyline fill="none" stroke="#000" points="229.783 -66 356.217 -66"/><text x="293" y="-50.8" font-family="Times,serif" font-size="14" text-anchor="middle">inserted rows: 1</text><polyline fill="none" stroke="#000" points="229.783 -44 356.217 -44"/><text x="293" y="-28.8" font-family="Times,serif" font-size="14" text-anchor="middle">updated rows: 0</text><polyline fill="none" stroke="#000" points="229.783 -22 356.217 -22"/><text x="293" y="-6.8" font-family="Times,serif" font-size="14" text-anchor="middle">deleted rows: 0</text></g><g id="edge1" class="edge"><title>3225050-&gt;3225023:name</title><path fill="none" stroke="#000" d="M151.617,-207.678C165.79,-203.684 180.806,-198.518 194,-192 208.289,-184.941 209.965,-171.987 220.177,-167.016"/><polygon fill="#000" stroke="#000" points="220.908 -170.439 230 -165 219.501 -163.582 220.908 -170.439"/></g><g id="node3" class="node"><title>3225052</title><g id="a_node3"><a xlink:href="tlf3225052.svg" xlink:title="decode_delivery_receipt"><ellipse cx="97" cy="-165" fill="none" stroke="#000" rx="97.043" ry="18"/><text x="97" y="-160.8" font-family="Times,serif" font-size="14" text-anchor="middle">decode_delivery_receipt</text></a></g></g><g id="edge2" class="edge"><title>3225052-&gt;3225023:name</title><path fill="none" stroke="#000" d="M194.245,-165C202.803,-165 211.415,-165 219.837,-165"/><polygon fill="#000" stroke="#000" points="220 -168.5 230 -165 220 -161.5 220 -168.5"/></g><g id="node4" class="node"><title>3225048</title><g id="a_node4"><a xlink:href="tlf3225048.svg" xlink:title="create_message"><ellipse cx="97" cy="-111" fill="none" stroke="#000" rx="65.68" ry="18"/><text x="97" y="-106.8" font-family="Times,serif" font-size="14" text-anchor="middle">create_message</text></a></g></g><g id="edge3" class="edge"><title>3225048-&gt;3225023:name</title><path fill="none" stroke="#000" d="M149.622,-121.766C164.373,-125.833 180.185,-131.175 194,-138 208.289,-145.059 209.965,-158.013 220.177,-162.984"/><polygon fill="#000" stroke="#000" points="219.501 -166.418 230 -165 220.908 -159.561 219.501 -166.418"/></g></g></svg>