<svg xmlns="http://www.w3.org/2000/svg" xmlns:xlink="http://www.w3.org/1999/xlink" width="480" height="191pt" viewBox="0 0 360 191"><g id="graph0" class="graph" transform="scale(1 1) rotate(0) translate(4 187)"><title>edges</title><polygon fill="#fff" stroke="none" points="-4 4 -4 -187 356 -187 356 4 -4 4"/><g id="node1" class="node"><title>3224943</title><g id="a_node1"><a xlink:href="tlf3224943.svg" xlink:title="processcallgraphbuffers"><ellipse cx="95" cy="-165" fill="none" stroke="#000" rx="94.335" ry="18"/><text x="95" y="-160.8" font-family="Times,serif" font-size="14" text-anchor="middle">processcallgraphbuffers</text></a></g></g><g id="node2" class="node"><title>3224908</title><polygon fill="none" stroke="#000" points="225.783 0 225.783 -176 352.217 -176 352.217 0 225.783 0"/><text x="289" y="-160.8" font-family="Times,serif" font-size="14" text-anchor="middle">edges</text><polyline fill="none" stroke="#000" points="225.783 -154 352.217 -154"/><text x="289" y="-138.8" font-family="Times,serif" font-size="14" text-anchor="middle">sequential scans: 0</text><polyline fill="none" stroke="#000" points="225.783 -132 352.217 -132"/><text x="289" y="-116.8" font-family="Times,serif" font-size="14" text-anchor="middle">avg seq tuples: 0</text><polyline fill="none" stroke="#000" points="225.783 -110 352.217 -110"/><text x="289" y="-94.8" font-family="Times,serif" font-size="14" text-anchor="middle">index scans: 1</text><polyline fill="none" stroke="#000" points="225.783 -88 352.217 -88"/><text x="289" y="-72.8" font-family="Times,serif" font-size="14" text-anchor="middle">avg idx tuples: 1.00</text><polyline fill="none" stroke="#000" points="225.783 -66 352.217 -66"/><text x="289" y="-50.8" font-family="Times,serif" font-size="14" text-anchor="middle">inserted rows: 3</text><polyline fill="none" stroke="#000" points="225.783 -44 352.217 -44"/><text x="289" y="-28.8" font-family="Times,serif" font-size="14" text-anchor="middle">updated rows: 1</text><polyline fill="none" stroke="#000" points="225.783 -22 352.217 -22"/><text x="289" y="-6.8" font-family="Times,serif" font-size="14" text-anchor="middle">deleted rows: 0</text></g><g id="edge1" class="edge"><title>3224943-&gt;3224908:name</title><path fill="none" stroke="#000" d="M189.73,-165C198.5,-165 207.337,-165 215.972,-165"/><polygon fill="#000" stroke="#000" points="216 -168.5 226 -165 216 -161.5 216 -168.5"/></g></g></svg>