<svg xmlns="http://www.w3.org/2000/svg" xmlns:xlink="http://www.w3.org/1999/xlink" width="194pt" height="98pt" viewBox="0 0 194 98"><g id="graph0" class="graph" transform="scale(1 1) rotate(0) translate(4 94)"><title>processcallgraphbuffers</title><polygon fill="#fff" stroke="none" points="-4 4 -4 -94 190 -94 190 4 -4 4"/><g id="node1" class="node"><title>3224895</title><g id="a_node1"><a xlink:href="r3224895.svg" xlink:title="callgraphs"><polygon fill="none" stroke="#000" points="185.533 -36 112.467 -36 112.467 0 185.533 0 185.533 -36"/><text x="149" y="-13.8" font-family="Times,serif" font-size="14" text-anchor="middle">callgraphs</text></a></g></g><g id="node2" class="node"><title>3224921</title><g id="a_node2"><a xlink:href="r3224921.svg" xlink:title="tableusage"><polygon fill="none" stroke="#000" points="75.583 -90 .417 -90 .417 -54 75.583 -54 75.583 -90"/><text x="38" y="-67.8" font-family="Times,serif" font-size="14" text-anchor="middle">tableusage</text></a></g></g><g id="node3" class="node"><title>3224908</title><g id="a_node3"><a xlink:href="r3224908.svg" xlink:title="edges"><polygon fill="none" stroke="#000" points="65 -36 11 -36 11 0 65 0 65 -36"/><text x="38" y="-13.8" font-family="Times,serif" font-size="14" text-anchor="middle">edges</text></a></g></g><g id="edge1" class="edge"><title>3224908-&gt;3224895</title><path fill="none" stroke="#000" d="M65.1082,-18C76.13,-18 89.3012,-18 101.865,-18"/><polygon fill="#000" stroke="#000" points="102.215 -21.5 112.215 -18 102.215 -14.5 102.215 -21.5"/></g></g></svg>