<svg xmlns="http://www.w3.org/2000/svg" xmlns:xlink="http://www.w3.org/1999/xlink" width="224" height="98pt" viewBox="0 0 168 98"><g id="graph0" class="graph" transform="scale(1 1) rotate(0) translate(4 94)"><title>decode_delivery_receipt</title><polygon fill="#fff" stroke="none" points="-4 4 -4 -94 164 -94 164 4 -4 4"/><g id="node1" class="node"><title>3225023</title><g id="a_node1"><a xlink:href="r3225023.svg" xlink:title="files"><polygon fill="none" stroke="#000" stroke-dasharray="5 2" points="160 -36 106 -36 106 0 160 0 160 -36"/><text x="133" y="-13.8" font-family="Times,serif" font-size="14" text-anchor="middle">files</text></a></g></g><g id="node2" class="node"><title>3225032</title><g id="a_node2"><a xlink:href="r3225032.svg" xlink:title="messages"><polygon fill="none" stroke="#000" points="69.376 -36 .624 -36 .624 0 69.376 0 69.376 -36"/><text x="35" y="-13.8" font-family="Times,serif" font-size="14" text-anchor="middle">messages</text></a></g></g><g id="edge1" class="edge"><title>3225032-&gt;3225023</title><path fill="none" stroke="#000" d="M69.5761,-18C78.033,-18 87.1483,-18 95.7306,-18"/><polygon fill="#000" stroke="#000" points="95.855 -21.5 105.855 -18 95.855 -14.5 95.855 -21.5"/></g><g id="node3" class="node"><title>3225005</title><g id="a_node3"><a xlink:href="r3225005.svg" xlink:title="keys"><polygon fill="none" stroke="#000" stroke-dasharray="5 2" points="62 -90 8 -90 8 -54 62 -54 62 -90"/><text x="35" y="-67.8" font-family="Times,serif" font-size="14" text-anchor="middle">keys</text></a></g></g></g></svg>