<svg xmlns="http://www.w3.org/2000/svg" xmlns:xlink="http://www.w3.org/1999/xlink" width="338pt" height="188pt" viewBox="0 0 338 188"><g id="graph0" class="graph" transform="scale(1 1) rotate(0) translate(4 184)"><title>graph1</title><polygon fill="#fff" stroke="none" points="-4 4 -4 -184 334 -184 334 4 -4 4"/><g id="node1" class="node"><title>t3225048e3224946</title><g id="a_node1"><a xlink:href="perfunction/3224946.svg" xlink:title="digest"><ellipse cx="31" cy="-90" fill="none" stroke="#000" rx="31.347" ry="18"/><text x="31" y="-85.8" font-family="Times,serif" font-size="14" text-anchor="middle">digest</text></a></g></g><g id="node2" class="node"><title>t3225048e3224947</title><g id="a_node2"><a xlink:href="perfunction/3224947.svg" xlink:title="digest"><ellipse cx="111" cy="-90" fill="none" stroke="#000" rx="31.347" ry="18"/><text x="111" y="-85.8" font-family="Times,serif" font-size="14" text-anchor="middle">digest</text></a></g></g><g id="node3" class="node"><title>t3225048e3224977</title><g id="a_node3"><a xlink:href="perfunction/3224977.svg" xlink:title="pgp_pub_encrypt_sign_bytea"><ellipse cx="216" cy="-18" fill="none" stroke="#000" rx="114.601" ry="18"/><text x="216" y="-13.8" font-family="Times,serif" font-size="14" text-anchor="middle">pgp_pub_encrypt_sign_bytea</text></a></g></g><g id="node4" class="node"><title>t3225048e3225046</title><g id="a_node4"><a xlink:href="perfunction/3225046.svg" xlink:title="encrypt_sign"><ellipse cx="216" cy="-90" fill="none" stroke="#000" rx="55.184" ry="18"/><text x="216" y="-85.8" font-family="Times,serif" font-size="14" text-anchor="middle">encrypt_sign</text></a></g></g><g id="edge1" class="edge"><title>t3225048e3225046-&gt;t3225048e3224977</title><path fill="none" stroke="#e10000" stroke-width="4.924" d="M216,-71.6966C216,-63.9827 216,-54.7125 216,-46.1124"/><polygon fill="#e10000" stroke="#e10000" stroke-width="4.924" points="220.309 -46.104 216 -36.104 211.691 -46.104 220.309 -46.104"/></g><g id="node5" class="node"><title>t3225048e3225048</title><g id="a_node5"><a xlink:href="perfunction/3225048.svg" xlink:title="create_message"><ellipse cx="111" cy="-162" fill="none" stroke="#000" rx="65.385" ry="18"/><text x="111" y="-157.8" font-family="Times,serif" font-size="14" text-anchor="middle">create_message</text></a></g></g><g id="edge2" class="edge"><title>t3225048e3225048-&gt;t3225048e3224946</title><path fill="none" stroke="#d7d7d7" d="M92.0411,-144.411C81.0038,-134.753 66.9786,-122.481 55.156,-112.136"/><polygon fill="#d7d7d7" stroke="#d7d7d7" points="57.217 -109.289 47.387 -105.338 52.608 -114.558 57.217 -109.289"/></g><g id="edge3" class="edge"><title>t3225048e3225048-&gt;t3225048e3224947</title><path fill="none" stroke="#d7d7d7" d="M111,-143.697C111,-135.983 111,-126.712 111,-118.112"/><polygon fill="#d7d7d7" stroke="#d7d7d7" points="114.5 -118.104 111 -108.104 107.5 -118.104 114.5 -118.104"/></g><g id="edge4" class="edge"><title>t3225048e3225048-&gt;t3225048e3225046</title><path fill="none" stroke="#d2d2d2" stroke-width="5" d="M134.826,-145.116C149.427,-135.382 168.297,-122.802 184.167,-112.222"/><polygon fill="#d2d2d2" stroke="#d2d2d2" stroke-width="5" points="186.736 -115.767 192.63 -106.58 181.883 -108.487 186.736 -115.767"/></g></g></svg>