<svg xmlns="http://www.w3.org/2000/svg" xmlns:xlink="http://www.w3.org/1999/xlink" width="667pt" height="188pt" viewBox="0 0 667 188"><g id="graph0" class="graph" transform="scale(1 1) rotate(0) translate(4 184)"><title>graph1</title><polygon fill="#fff" stroke="none" points="-4 4 -4 -184 663 -184 663 4 -4 4"/><g id="node1" class="node"><title>t3225051e3224986</title><g id="a_node1"><a xlink:href="perfunction/3224986.svg" xlink:title="pgp_pub_decrypt_verify_bytea"><ellipse cx="121" cy="-18" fill="none" stroke="#000" rx="121.162" ry="18"/><text x="121" y="-13.8" font-family="Times,serif" font-size="14" text-anchor="middle">pgp_pub_decrypt_verify_bytea</text></a></g></g><g id="node2" class="node"><title>t3225051e3224989</title><g id="a_node2"><a xlink:href="perfunction/3224989.svg" xlink:title="pgp_key_id"><ellipse cx="312" cy="-18" fill="none" stroke="#000" rx="51.296" ry="18"/><text x="312" y="-13.8" font-family="Times,serif" font-size="14" text-anchor="middle">pgp_key_id</text></a></g></g><g id="node3" class="node"><title>t3225051e3224992</title><g id="a_node3"><a xlink:href="perfunction/3224992.svg" xlink:title="pgp_pub_signature_keys"><ellipse cx="480" cy="-18" fill="none" stroke="#000" rx="98.293" ry="18"/><text x="480" y="-13.8" font-family="Times,serif" font-size="14" text-anchor="middle">pgp_pub_signature_keys</text></a></g></g><g id="node4" class="node"><title>t3225051e3224994</title><g id="a_node4"><a xlink:href="perfunction/3224994.svg" xlink:title="armor"><ellipse cx="628" cy="-18" fill="none" stroke="#000" rx="31.334" ry="18"/><text x="628" y="-13.8" font-family="Times,serif" font-size="14" text-anchor="middle">armor</text></a></g></g><g id="node5" class="node"><title>t3225051e3224995</title><g id="a_node5"><a xlink:href="perfunction/3224995.svg" xlink:title="dearmor"><ellipse cx="237" cy="-90" fill="none" stroke="#000" rx="39.353" ry="18"/><text x="237" y="-85.8" font-family="Times,serif" font-size="14" text-anchor="middle">dearmor</text></a></g></g><g id="node6" class="node"><title>t3225051e3225047</title><g id="a_node6"><a xlink:href="perfunction/3225047.svg" xlink:title="decrypt_verify"><ellipse cx="357" cy="-90" fill="none" stroke="#000" rx="62.242" ry="18"/><text x="357" y="-85.8" font-family="Times,serif" font-size="14" text-anchor="middle">decrypt_verify</text></a></g></g><g id="edge1" class="edge"><title>t3225051e3225047-&gt;t3225051e3224986</title><path fill="none" stroke="#e10000" stroke-width="1.713" d="M315.351,-76.6465C278.6,-65.7457 224.532,-49.7086 182.748,-37.3151"/><polygon fill="#e10000" stroke="#e10000" stroke-width="1.713" points="183.533 -33.897 172.951 -34.409 181.543 -40.608 183.533 -33.897"/></g><g id="edge2" class="edge"><title>t3225051e3225047-&gt;t3225051e3224989</title><path fill="none" stroke="#d7d7d7" d="M346.107,-72.055C340.745,-63.7147 334.173,-53.4908 328.233,-44.2517"/><polygon fill="#d7d7d7" stroke="#d7d7d7" points="331.145 -42.308 322.793 -35.789 325.256 -46.093 331.145 -42.308"/></g><g id="edge3" class="edge"><title>t3225051e3225047-&gt;t3225051e3224992</title><path fill="none" stroke="#c00" stroke-width="3.252" d="M383.993,-73.6382C401.131,-63.885 423.554,-51.1236 442.42,-40.3869"/><polygon fill="#c00" stroke="#c00" stroke-width="3.252" points="444.397 -43.289 451.357 -35.301 440.935 -37.205 444.397 -43.289"/></g><g id="node7" class="node"><title>t3225051e3225049</title><g id="a_node7"><a xlink:href="perfunction/3225049.svg" xlink:title="get_message"><ellipse cx="582" cy="-90" fill="none" stroke="#000" rx="54.938" ry="18"/><text x="582" y="-85.8" font-family="Times,serif" font-size="14" text-anchor="middle">get_message</text></a></g></g><g id="edge4" class="edge"><title>t3225051e3225049-&gt;t3225051e3224994</title><path fill="none" stroke="#d7d7d7" d="M593.135,-72.055C598.697,-63.592 605.533,-53.1897 611.673,-43.8447"/><polygon fill="#d7d7d7" stroke="#d7d7d7" points="614.717 -45.586 617.284 -35.307 608.867 -41.742 614.717 -45.586"/></g><g id="node8" class="node"><title>t3225051e3225051</title><g id="a_node8"><a xlink:href="perfunction/3225051.svg" xlink:title="read_message"><ellipse cx="357" cy="-162" fill="none" stroke="#000" rx="59.556" ry="18"/><text x="357" y="-157.8" font-family="Times,serif" font-size="14" text-anchor="middle">read_message</text></a></g></g><g id="edge5" class="edge"><title>t3225051e3225051-&gt;t3225051e3224995</title><path fill="none" stroke="#d7d7d7" d="M330.962,-145.811C312.872,-135.258 288.64,-121.123 269.315,-109.851"/><polygon fill="#d7d7d7" stroke="#d7d7d7" points="270.948 -106.751 260.547 -104.736 267.421 -112.798 270.948 -106.751"/></g><g id="edge6" class="edge"><title>t3225051e3225051-&gt;t3225051e3225047</title><path fill="none" stroke="#d1d1d1" stroke-width="5" d="M357,-143.697C357,-135.983 357,-126.712 357,-118.112"/><polygon fill="#d1d1d1" stroke="#d1d1d1" stroke-width="5" points="361.375 -118.104 357 -108.104 352.625 -118.104 361.375 -118.104"/></g><g id="edge7" class="edge"><title>t3225051e3225051-&gt;t3225051e3225049</title><path fill="none" stroke="#d6d6d6" d="M396.966,-148.566C435.231,-136.661 493.014,-118.685 533.809,-105.993"/><polygon fill="#d6d6d6" stroke="#d6d6d6" points="535.024 -109.28 543.533 -102.968 532.945 -102.596 535.024 -109.28"/></g></g></svg>