<svg xmlns="http://www.w3.org/2000/svg" xmlns:xlink="http://www.w3.org/1999/xlink" width="586pt" height="188pt" viewBox="0 0 586 188"><g id="graph0" class="graph" transform="scale(1 1) rotate(0) translate(4 184)"><title>graph1</title><polygon fill="#fff" stroke="none" points="-4 4 -4 -184 582 -184 582 4 -4 4"/><g id="node1" class="node"><title>t3225052e3224986</title><g id="a_node1"><a xlink:href="perfunction/3224986.svg" xlink:title="pgp_pub_decrypt_verify_bytea"><ellipse cx="121" cy="-18" fill="none" stroke="#000" rx="121.162" ry="18"/><text x="121" y="-13.8" font-family="Times,serif" font-size="14" text-anchor="middle">pgp_pub_decrypt_verify_bytea</text></a></g></g><g id="node2" class="node"><title>t3225052e3224989</title><g id="a_node2"><a xlink:href="perfunction/3224989.svg" xlink:title="pgp_key_id"><ellipse cx="312" cy="-18" fill="none" stroke="#000" rx="51.296" ry="18"/><text x="312" y="-13.8" font-family="Times,serif" font-size="14" text-anchor="middle">pgp_key_id</text></a></g></g><g id="node3" class="node"><title>t3225052e3224992</title><g id="a_node3"><a xlink:href="perfunction/3224992.svg" xlink:title="pgp_pub_signature_keys"><ellipse cx="480" cy="-18" fill="none" stroke="#000" rx="98.293" ry="18"/><text x="480" y="-13.8" font-family="Times,serif" font-size="14" text-anchor="middle">pgp_pub_signature_keys</text></a></g></g><g id="node4" class="node"><title>t3225052e3224995</title><g id="a_node4"><a xlink:href="perfunction/3224995.svg" xlink:title="dearmor"><ellipse cx="192" cy="-90" fill="none" stroke="#000" rx="39.353" ry="18"/><text x="192" y="-85.8" font-family="Times,serif" font-size="14" text-anchor="middle">dearmor</text></a></g></g><g id="node5" class="node"><title>t3225052e3225047</title><g id="a_node5"><a xlink:href="perfunction/3225047.svg" xlink:title="decrypt_verify"><ellipse cx="312" cy="-90" fill="none" stroke="#000" rx="62.242" ry="18"/><text x="312" y="-85.8" font-family="Times,serif" font-size="14" text-anchor="middle">decrypt_verify</text></a></g></g><g id="edge1" class="edge"><title>t3225052e3225047-&gt;t3225052e3224986</title><path fill="none" stroke="#e10000" stroke-width="1.679" d="M275.173,-75.5033C246.487,-64.99 206.269,-50.2506 174.103,-38.4618"/><polygon fill="#e10000" stroke="#e10000" stroke-width="1.679" points="174.994 -35.061 164.401 -34.906 172.585 -41.633 174.994 -35.061"/></g><g id="edge2" class="edge"><title>t3225052e3225047-&gt;t3225052e3224989</title><path fill="none" stroke="#d7d7d7" d="M312,-71.6966C312,-63.9827 312,-54.7125 312,-46.1124"/><polygon fill="#d7d7d7" stroke="#d7d7d7" points="315.5 -46.104 312 -36.104 308.5 -46.104 315.5 -46.104"/></g><g id="edge3" class="edge"><title>t3225052e3225047-&gt;t3225052e3224992</title><path fill="none" stroke="#d90000" stroke-width="3.294" d="M345.997,-74.8345C370.955,-64.4352 405.173,-50.1778 432.784,-38.6734"/><polygon fill="#d90000" stroke="#d90000" stroke-width="3.294" points="434.364 -41.807 442.248 -34.73 431.672 -35.345 434.364 -41.807"/></g><g id="node6" class="node"><title>t3225052e3225052</title><g id="a_node6"><a xlink:href="perfunction/3225052.svg" xlink:title="decode_delivery_receipt"><ellipse cx="252" cy="-162" fill="none" stroke="#000" rx="97.032" ry="18"/><text x="252" y="-157.8" font-family="Times,serif" font-size="14" text-anchor="middle">decode_delivery_receipt</text></a></g></g><g id="edge4" class="edge"><title>t3225052e3225052-&gt;t3225052e3224995</title><path fill="none" stroke="#d7d7d7" d="M237.476,-144.055C229.997,-135.33 220.752,-124.544 212.555,-114.981"/><polygon fill="#d7d7d7" stroke="#d7d7d7" points="215.143 -112.622 205.977 -107.307 209.828 -117.177 215.143 -112.622"/></g><g id="edge5" class="edge"><title>t3225052e3225052-&gt;t3225052e3225047</title><path fill="none" stroke="#d2d2d2" stroke-width="5" d="M266.524,-144.055C273.894,-135.457 282.98,-124.857 291.088,-115.397"/><polygon fill="#d2d2d2" stroke="#d2d2d2" stroke-width="5" points="294.423 -118.229 297.609 -107.789 287.78 -112.534 294.423 -118.229"/></g></g></svg>