<svg xmlns="http://www.w3.org/2000/svg" xmlns:xlink="http://www.w3.org/1999/xlink" width="396" height="116pt" viewBox="0 0 297 116"><g id="graph0" class="graph" transform="scale(1 1) rotate(0) translate(4 112)"><title>graph1</title><polygon fill="#fff" stroke="none" points="-4 4 -4 -112 293 -112 293 4 -4 4"/><g id="node1" class="node"><title>3225048</title><g id="a_node1"><a xlink:href="3225048.svg" xlink:title="create_message"><ellipse cx="65" cy="-90" fill="none" stroke="#000" stroke-width="2.5" rx="65.385" ry="18"/><text x="65" y="-85.8" font-family="Times,serif" font-size="14" text-anchor="middle">create_message</text></a></g></g><g id="node2" class="node"><title>3224946</title><ellipse cx="142" cy="-18" fill="none" stroke="#000" stroke-dasharray="5 2" rx="31.347" ry="18"/><text x="142" y="-13.8" font-family="Times,serif" font-size="14" text-anchor="middle">digest</text></g><g id="edge1" class="edge"><title>3225048-&gt;3224946</title><path fill="none" stroke="#000" d="M83.2479,-72.411C93.799,-62.8191 107.187,-50.6481 118.517,-40.3479"/><polygon fill="#000" stroke="#000" points="120.927 -42.887 125.972 -33.571 116.219 -37.707 120.927 -42.887"/></g><g id="node3" class="node"><title>3225050</title><g id="a_node3"><a xlink:href="3225050.svg" xlink:title="receive_message"><ellipse cx="219" cy="-90" fill="none" stroke="#000" stroke-width="2.5" rx="70.018" ry="18"/><text x="219" y="-85.8" font-family="Times,serif" font-size="14" text-anchor="middle">receive_message</text></a></g></g><g id="edge2" class="edge"><title>3225050-&gt;3224946</title><path fill="none" stroke="#000" d="M200.752,-72.411C190.201,-62.8191 176.813,-50.6481 165.483,-40.3479"/><polygon fill="#000" stroke="#000" points="167.781 -37.707 158.028 -33.571 163.073 -42.887 167.781 -37.707"/></g></g></svg>