<svg xmlns="http://www.w3.org/2000/svg" xmlns:xlink="http://www.w3.org/1999/xlink" width="497pt" height="188pt" viewBox="0 0 497 188"><g id="graph0" class="graph" transform="scale(1 1) rotate(0) translate(4 184)"><title>graph1</title><polygon fill="#fff" stroke="none" points="-4 4 -4 -184 493 -184 493 4 -4 4"/><g id="node1" class="node"><title>3225047</title><g id="a_node1"><a xlink:href="3225047.svg" xlink:title="decrypt_verify"><ellipse cx="282" cy="-90" fill="none" stroke="#000" stroke-width="2.5" rx="62.242" ry="18"/><text x="282" y="-85.8" font-family="Times,serif" font-size="14" text-anchor="middle">decrypt_verify</text></a></g></g><g id="node2" class="node"><title>3224992</title><ellipse cx="282" cy="-18" fill="none" stroke="#000" stroke-dasharray="5 2" rx="98.293" ry="18"/><text x="282" y="-13.8" font-family="Times,serif" font-size="14" text-anchor="middle">pgp_pub_signature_keys</text></g><g id="edge1" class="edge"><title>3225047-&gt;3224992</title><path fill="none" stroke="#000" d="M282,-71.6966C282,-63.9827 282,-54.7125 282,-46.1124"/><polygon fill="#000" stroke="#000" points="285.5 -46.104 282 -36.104 278.5 -46.104 285.5 -46.104"/></g><g id="node3" class="node"><title>3225052</title><g id="a_node3"><a xlink:href="3225052.svg" xlink:title="decode_delivery_receipt"><ellipse cx="97" cy="-162" fill="none" stroke="#000" stroke-width="2.5" rx="97.032" ry="18"/><text x="97" y="-157.8" font-family="Times,serif" font-size="14" text-anchor="middle">decode_delivery_receipt</text></a></g></g><g id="edge2" class="edge"><title>3225052-&gt;3225047</title><path fill="none" stroke="#000" d="M137.599,-145.638C166.776,-134.598 206.138,-119.704 236.397,-108.255"/><polygon fill="#000" stroke="#000" points="237.763 -111.481 245.877 -104.668 235.286 -104.934 237.763 -111.481"/></g><g id="node4" class="node"><title>3225050</title><g id="a_node4"><a xlink:href="3225050.svg" xlink:title="receive_message"><ellipse cx="282" cy="-162" fill="none" stroke="#000" stroke-width="2.5" rx="70.018" ry="18"/><text x="282" y="-157.8" font-family="Times,serif" font-size="14" text-anchor="middle">receive_message</text></a></g></g><g id="edge3" class="edge"><title>3225050-&gt;3225047</title><path fill="none" stroke="#000" d="M282,-143.697C282,-135.983 282,-126.712 282,-118.112"/><polygon fill="#000" stroke="#000" points="285.5 -118.104 282 -108.104 278.5 -118.104 285.5 -118.104"/></g><g id="node5" class="node"><title>3225051</title><g id="a_node5"><a xlink:href="3225051.svg" xlink:title="read_message"><ellipse cx="430" cy="-162" fill="none" stroke="#000" stroke-width="2.5" rx="59.556" ry="18"/><text x="430" y="-157.8" font-family="Times,serif" font-size="14" text-anchor="middle">read_message</text></a></g></g><g id="edge4" class="edge"><title>3225051-&gt;3225047</title><path fill="none" stroke="#000" d="M399.334,-146.496C377.06,-135.961 346.698,-121.6 322.44,-110.127"/><polygon fill="#000" stroke="#000" points="323.672 -106.838 313.136 -105.726 320.679 -113.166 323.672 -106.838"/></g></g></svg>