<svg xmlns="http://www.w3.org/2000/svg" xmlns:xlink="http://www.w3.org/1999/xlink" width="497pt" height="116pt" viewBox="0 0 497 116"><g id="graph0" class="graph" transform="scale(1 1) rotate(0) translate(4 112)"><title>graph1</title><polygon fill="#fff" stroke="none" points="-4 4 -4 -112 493 -112 493 4 -4 4"/><g id="node1" class="node"><title>3225052</title><g id="a_node1"><a xlink:href="3225052.svg" xlink:title="decode_delivery_receipt"><ellipse cx="97" cy="-90" fill="none" stroke="#000" stroke-width="2.5" rx="97.032" ry="18"/><text x="97" y="-85.8" font-family="Times,serif" font-size="14" text-anchor="middle">decode_delivery_receipt</text></a></g></g><g id="node2" class="node"><title>3224995</title><ellipse cx="282" cy="-18" fill="none" stroke="#000" stroke-dasharray="5 2" rx="39.353" ry="18"/><text x="282" y="-13.8" font-family="Times,serif" font-size="14" text-anchor="middle">dearmor</text></g><g id="edge1" class="edge"><title>3225052-&gt;3224995</title><path fill="none" stroke="#000" d="M137.599,-73.6382C168.983,-61.7631 212.153,-45.4287 243.101,-33.7187"/><polygon fill="#000" stroke="#000" points="244.574 -36.903 252.689 -30.091 242.097 -30.356 244.574 -36.903"/></g><g id="node3" class="node"><title>3225050</title><g id="a_node3"><a xlink:href="3225050.svg" xlink:title="receive_message"><ellipse cx="282" cy="-90" fill="none" stroke="#000" stroke-width="2.5" rx="70.018" ry="18"/><text x="282" y="-85.8" font-family="Times,serif" font-size="14" text-anchor="middle">receive_message</text></a></g></g><g id="edge2" class="edge"><title>3225050-&gt;3224995</title><path fill="none" stroke="#000" d="M282,-71.6966C282,-63.9827 282,-54.7125 282,-46.1124"/><polygon fill="#000" stroke="#000" points="285.5 -46.104 282 -36.104 278.5 -46.104 285.5 -46.104"/></g><g id="node4" class="node"><title>3225051</title><g id="a_node4"><a xlink:href="3225051.svg" xlink:title="read_message"><ellipse cx="430" cy="-90" fill="none" stroke="#000" stroke-width="2.5" rx="59.556" ry="18"/><text x="430" y="-85.8" font-family="Times,serif" font-size="14" text-anchor="middle">read_message</text></a></g></g><g id="edge3" class="edge"><title>3225051-&gt;3224995</title><path fill="none" stroke="#000" d="M399.334,-74.496C375.61,-63.275 342.711,-47.7145 317.784,-35.925"/><polygon fill="#000" stroke="#000" points="319.193 -32.72 308.657 -31.608 316.2 -39.048 319.193 -32.72"/></g></g></svg>