<svg xmlns="http://www.w3.org/2000/svg" xmlns:xlink="http://www.w3.org/1999/xlink" width="280pt" height="188pt" viewBox="0 0 280 188"><g id="graph0" class="graph" transform="scale(1 1) rotate(0) translate(4 184)"><title>graph1</title><polygon fill="#fff" stroke="none" points="-4 4 -4 -184 276 -184 276 4 -4 4"/><g id="node1" class="node"><title>3225050</title><g id="a_node1"><a xlink:href="3225050.svg" xlink:title="receive_message"><ellipse cx="70" cy="-90" fill="none" stroke="#000" stroke-width="2.5" rx="70.018" ry="18"/><text x="70" y="-85.8" font-family="Times,serif" font-size="14" text-anchor="middle">receive_message</text></a></g></g><g id="node2" class="node"><title>3224994</title><ellipse cx="141" cy="-18" fill="none" stroke="#000" stroke-dasharray="5 2" rx="31.334" ry="18"/><text x="141" y="-13.8" font-family="Times,serif" font-size="14" text-anchor="middle">armor</text></g><g id="edge1" class="edge"><title>3225050-&gt;3224994</title><path fill="none" stroke="#000" d="M86.826,-72.411C96.3294,-63.0414 108.329,-51.211 118.618,-41.0672"/><polygon fill="#000" stroke="#000" points="121.083 -43.551 125.747 -34.038 116.169 -38.567 121.083 -43.551"/></g><g id="node3" class="node"><title>3225049</title><g id="a_node3"><a xlink:href="3225049.svg" xlink:title="get_message"><ellipse cx="213" cy="-90" fill="none" stroke="#000" stroke-width="2.5" rx="54.938" ry="18"/><text x="213" y="-85.8" font-family="Times,serif" font-size="14" text-anchor="middle">get_message</text></a></g></g><g id="edge2" class="edge"><title>3225049-&gt;3224994</title><path fill="none" stroke="#000" d="M196.301,-72.7646C186.673,-63.4047 174.431,-51.5028 163.914,-41.2777"/><polygon fill="#000" stroke="#000" points="166.233 -38.65 156.623 -34.189 161.353 -43.669 166.233 -38.65"/></g><g id="node4" class="node"><title>3225051</title><g id="a_node4"><a xlink:href="3225051.svg" xlink:title="read_message"><ellipse cx="213" cy="-162" fill="none" stroke="#000" stroke-width="2.5" rx="59.556" ry="18"/><text x="213" y="-157.8" font-family="Times,serif" font-size="14" text-anchor="middle">read_message</text></a></g></g><g id="edge3" class="edge"><title>3225051-&gt;3225049</title><path fill="none" stroke="#000" d="M213,-143.697C213,-135.983 213,-126.712 213,-118.112"/><polygon fill="#000" stroke="#000" points="216.5 -118.104 213 -108.104 209.5 -118.104 216.5 -118.104"/></g></g></svg>