<svg xmlns="http://www.w3.org/2000/svg" xmlns:xlink="http://www.w3.org/1999/xlink" width="338pt" height="188pt" viewBox="0 0 338 188"><g id="graph0" class="graph" transform="scale(1 1) rotate(0) translate(4 184)"><title>graph1</title><polygon fill="#fff" stroke="none" points="-4 4 -4 -184 334 -184 334 4 -4 4"/><g id="node1" class="node"><title>3225048</title><ellipse cx="219" cy="-162" fill="none" stroke="#000" stroke-dasharray="5 2" rx="65.385" ry="18"/><text x="219" y="-157.8" font-family="Times,serif" font-size="14" text-anchor="middle">create_message</text></g><g id="node2" class="node"><title>3225046</title><g id="a_node2"><a xlink:href="3225046.svg" xlink:title="encrypt_sign"><ellipse cx="114" cy="-90" fill="none" stroke="#000" stroke-width="2.5" rx="55.184" ry="18"/><text x="114" y="-85.8" font-family="Times,serif" font-size="14" text-anchor="middle">encrypt_sign</text></a></g></g><g id="edge1" class="edge"><title>3225048-&gt;3225046</title><path fill="none" stroke="#000" d="M195.174,-145.116C180.573,-135.382 161.703,-122.802 145.833,-112.222"/><polygon fill="#000" stroke="#000" points="147.632 -109.215 137.37 -106.58 143.749 -115.039 147.632 -109.215"/></g><g id="node3" class="node"><title>3224946</title><g id="a_node3"><a xlink:href="3224946.svg" xlink:title="digest"><ellipse cx="219" cy="-90" fill="none" stroke="#000" rx="31.347" ry="18"/><text x="219" y="-85.8" font-family="Times,serif" font-size="14" text-anchor="middle">digest</text></a></g></g><g id="edge2" class="edge"><title>3225048-&gt;3224946</title><path fill="none" stroke="#000" d="M219,-143.697C219,-135.983 219,-126.712 219,-118.112"/><polygon fill="#000" stroke="#000" points="222.5 -118.104 219 -108.104 215.5 -118.104 222.5 -118.104"/></g><g id="node4" class="node"><title>3224947</title><g id="a_node4"><a xlink:href="3224947.svg" xlink:title="digest"><ellipse cx="299" cy="-90" fill="none" stroke="#000" rx="31.347" ry="18"/><text x="299" y="-85.8" font-family="Times,serif" font-size="14" text-anchor="middle">digest</text></a></g></g><g id="edge3" class="edge"><title>3225048-&gt;3224947</title><path fill="none" stroke="#000" d="M237.959,-144.411C248.996,-134.753 263.021,-122.481 274.844,-112.136"/><polygon fill="#000" stroke="#000" points="277.392 -114.558 282.613 -105.338 272.783 -109.289 277.392 -114.558"/></g><g id="node5" class="node"><title>3224977</title><g id="a_node5"><a xlink:href="3224977.svg" xlink:title="pgp_pub_encrypt_sign_bytea"><ellipse cx="114" cy="-18" fill="none" stroke="#000" rx="114.601" ry="18"/><text x="114" y="-13.8" font-family="Times,serif" font-size="14" text-anchor="middle">pgp_pub_encrypt_sign_bytea</text></a></g></g><g id="edge4" class="edge"><title>3225046-&gt;3224977</title><path fill="none" stroke="#000" d="M114,-71.6966C114,-63.9827 114,-54.7125 114,-46.1124"/><polygon fill="#000" stroke="#000" points="117.5 -46.104 114 -36.104 110.5 -46.104 117.5 -46.104"/></g></g></svg>