<svg xmlns="http://www.w3.org/2000/svg" xmlns:xlink="http://www.w3.org/1999/xlink" width="770pt" height="188pt" viewBox="0 0 770 188"><g id="graph0" class="graph" transform="scale(1 1) rotate(0) translate(4 184)"><title>graph1</title><polygon fill="#fff" stroke="none" points="-4 4 -4 -184 766 -184 766 4 -4 4"/><g id="node1" class="node"><title>3225051</title><ellipse cx="152" cy="-162" fill="none" stroke="#000" stroke-dasharray="5 2" rx="59.556" ry="18"/><text x="152" y="-157.8" font-family="Times,serif" font-size="14" text-anchor="middle">read_message</text></g><g id="node2" class="node"><title>3224995</title><g id="a_node2"><a xlink:href="3224995.svg" xlink:title="dearmor"><ellipse cx="39" cy="-90" fill="none" stroke="#000" stroke-width="2.5" rx="39.353" ry="18"/><text x="39" y="-85.8" font-family="Times,serif" font-size="14" text-anchor="middle">dearmor</text></a></g></g><g id="edge1" class="edge"><title>3225051-&gt;3224995</title><path fill="none" stroke="#000" d="M127.202,-145.638C110.494,-135.288 88.3176,-121.551 70.3816,-110.44"/><polygon fill="#000" stroke="#000" points="71.784 -107.192 61.44 -104.901 68.098 -113.143 71.784 -107.192"/></g><g id="node3" class="node"><title>3225049</title><g id="a_node3"><a xlink:href="3225049.svg" xlink:title="get_message"><ellipse cx="152" cy="-90" fill="none" stroke="#000" stroke-width="2.5" rx="54.938" ry="18"/><text x="152" y="-85.8" font-family="Times,serif" font-size="14" text-anchor="middle">get_message</text></a></g></g><g id="edge2" class="edge"><title>3225051-&gt;3225049</title><path fill="none" stroke="#000" d="M152,-143.697C152,-135.983 152,-126.712 152,-118.112"/><polygon fill="#000" stroke="#000" points="155.5 -118.104 152 -108.104 148.5 -118.104 155.5 -118.104"/></g><g id="node4" class="node"><title>3225047</title><g id="a_node4"><a xlink:href="3225047.svg" xlink:title="decrypt_verify"><ellipse cx="424" cy="-90" fill="none" stroke="#000" stroke-width="2.5" rx="62.242" ry="18"/><text x="424" y="-85.8" font-family="Times,serif" font-size="14" text-anchor="middle">decrypt_verify</text></a></g></g><g id="edge3" class="edge"><title>3225051-&gt;3225047</title><path fill="none" stroke="#000" d="M195.702,-149.753C242.865,-137.616 318.068,-118.262 369.166,-105.112"/><polygon fill="#000" stroke="#000" points="370.237 -108.45 379.049 -102.568 368.492 -101.671 370.237 -108.45"/></g><g id="node5" class="node"><title>3224994</title><g id="a_node5"><a xlink:href="3224994.svg" xlink:title="armor"><ellipse cx="135" cy="-18" fill="none" stroke="#000" rx="31.334" ry="18"/><text x="135" y="-13.8" font-family="Times,serif" font-size="14" text-anchor="middle">armor</text></a></g></g><g id="edge4" class="edge"><title>3225049-&gt;3224994</title><path fill="none" stroke="#000" d="M147.798,-71.6966C145.904,-63.8979 143.623,-54.5085 141.516,-45.8292"/><polygon fill="#000" stroke="#000" points="144.915 -44.996 139.154 -36.104 138.113 -46.648 144.915 -44.996"/></g><g id="node6" class="node"><title>3224986</title><g id="a_node6"><a xlink:href="3224986.svg" xlink:title="pgp_pub_decrypt_verify_bytea"><ellipse cx="305" cy="-18" fill="none" stroke="#000" rx="121.162" ry="18"/><text x="305" y="-13.8" font-family="Times,serif" font-size="14" text-anchor="middle">pgp_pub_decrypt_verify_bytea</text></a></g></g><g id="edge5" class="edge"><title>3225047-&gt;3224986</title><path fill="none" stroke="#000" d="M397.885,-73.6382C381.572,-64.0422 360.308,-51.5342 342.243,-40.9076"/><polygon fill="#000" stroke="#000" points="343.525 -37.601 333.131 -35.547 339.975 -43.635 343.525 -37.601"/></g><g id="node7" class="node"><title>3224992</title><g id="a_node7"><a xlink:href="3224992.svg" xlink:title="pgp_pub_signature_keys"><ellipse cx="543" cy="-18" fill="none" stroke="#000" rx="98.293" ry="18"/><text x="543" y="-13.8" font-family="Times,serif" font-size="14" text-anchor="middle">pgp_pub_signature_keys</text></a></g></g><g id="edge6" class="edge"><title>3225047-&gt;3224992</title><path fill="none" stroke="#000" d="M450.115,-73.6382C466.696,-63.885 488.39,-51.1236 506.642,-40.3869"/><polygon fill="#000" stroke="#000" points="508.444 -43.388 515.289 -35.301 504.895 -37.354 508.444 -43.388"/></g><g id="node8" class="node"><title>3224989</title><g id="a_node8"><a xlink:href="3224989.svg" xlink:title="pgp_key_id"><ellipse cx="711" cy="-18" fill="none" stroke="#000" rx="51.296" ry="18"/><text x="711" y="-13.8" font-family="Times,serif" font-size="14" text-anchor="middle">pgp_key_id</text></a></g></g><g id="edge7" class="edge"><title>3225047-&gt;3224989</title><path fill="none" stroke="#000" d="M471.758,-78.4043C517.596,-68.092 588.712,-51.7194 650,-36 654.073,-34.9553 658.291,-33.8432 662.52,-32.7073"/><polygon fill="#000" stroke="#000" points="663.612 -36.037 672.341 -30.034 661.773 -29.283 663.612 -36.037"/></g></g></svg>