<svg xmlns="http://www.w3.org/2000/svg" xmlns:xlink="http://www.w3.org/1999/xlink" width="586pt" height="188pt" viewBox="0 0 586 188"><g id="graph0" class="graph" transform="scale(1 1) rotate(0) translate(4 184)"><title>graph1</title><polygon fill="#fff" stroke="none" points="-4 4 -4 -184 582 -184 582 4 -4 4"/><g id="node1" class="node"><title>3225052</title><g id="a_node1"><a xlink:href="3225052.svg" xlink:title="decode_delivery_receipt"><ellipse cx="174" cy="-162" fill="none" stroke="#000" stroke-width="2.5" rx="97.032" ry="18"/><text x="174" y="-157.8" font-family="Times,serif" font-size="14" text-anchor="middle">decode_delivery_receipt</text></a></g></g><g id="node2" class="node"><title>3225047</title><ellipse cx="359" cy="-90" fill="none" stroke="#000" stroke-dasharray="5 2" rx="62.242" ry="18"/><text x="359" y="-85.8" font-family="Times,serif" font-size="14" text-anchor="middle">decrypt_verify</text></g><g id="edge1" class="edge"><title>3225052-&gt;3225047</title><path fill="none" stroke="#000" d="M214.599,-145.638C243.776,-134.598 283.138,-119.704 313.397,-108.255"/><polygon fill="#000" stroke="#000" points="314.763 -111.481 322.877 -104.668 312.286 -104.934 314.763 -111.481"/></g><g id="node5" class="node"><title>3224986</title><g id="a_node5"><a xlink:href="3224986.svg" xlink:title="pgp_pub_decrypt_verify_bytea"><ellipse cx="121" cy="-18" fill="none" stroke="#000" rx="121.162" ry="18"/><text x="121" y="-13.8" font-family="Times,serif" font-size="14" text-anchor="middle">pgp_pub_decrypt_verify_bytea</text></a></g></g><g id="edge4" class="edge"><title>3225047-&gt;3224986</title><path fill="none" stroke="#000" d="M316.998,-76.6465C279.733,-65.6863 224.814,-49.5336 182.583,-37.1128"/><polygon fill="#000" stroke="#000" points="183.541 -33.746 172.96 -34.282 181.566 -40.462 183.541 -33.746"/></g><g id="node6" class="node"><title>3224992</title><g id="a_node6"><a xlink:href="3224992.svg" xlink:title="pgp_pub_signature_keys"><ellipse cx="359" cy="-18" fill="none" stroke="#000" rx="98.293" ry="18"/><text x="359" y="-13.8" font-family="Times,serif" font-size="14" text-anchor="middle">pgp_pub_signature_keys</text></a></g></g><g id="edge5" class="edge"><title>3225047-&gt;3224992</title><path fill="none" stroke="#000" d="M359,-71.6966C359,-63.9827 359,-54.7125 359,-46.1124"/><polygon fill="#000" stroke="#000" points="362.5 -46.104 359 -36.104 355.5 -46.104 362.5 -46.104"/></g><g id="node7" class="node"><title>3224989</title><g id="a_node7"><a xlink:href="3224989.svg" xlink:title="pgp_key_id"><ellipse cx="527" cy="-18" fill="none" stroke="#000" rx="51.296" ry="18"/><text x="527" y="-13.8" font-family="Times,serif" font-size="14" text-anchor="middle">pgp_key_id</text></a></g></g><g id="edge6" class="edge"><title>3225047-&gt;3224989</title><path fill="none" stroke="#000" d="M392.997,-74.8345C419.873,-63.6361 457.487,-47.9638 486.025,-36.0729"/><polygon fill="#000" stroke="#000" points="487.442 -39.274 495.326 -32.197 484.75 -32.813 487.442 -39.274"/></g><g id="node3" class="node"><title>3225050</title><g id="a_node3"><a xlink:href="3225050.svg" xlink:title="receive_message"><ellipse cx="359" cy="-162" fill="none" stroke="#000" stroke-width="2.5" rx="70.018" ry="18"/><text x="359" y="-157.8" font-family="Times,serif" font-size="14" text-anchor="middle">receive_message</text></a></g></g><g id="edge2" class="edge"><title>3225050-&gt;3225047</title><path fill="none" stroke="#000" d="M359,-143.697C359,-135.983 359,-126.712 359,-118.112"/><polygon fill="#000" stroke="#000" points="362.5 -118.104 359 -108.104 355.5 -118.104 362.5 -118.104"/></g><g id="node4" class="node"><title>3225051</title><g id="a_node4"><a xlink:href="3225051.svg" xlink:title="read_message"><ellipse cx="507" cy="-162" fill="none" stroke="#000" stroke-width="2.5" rx="59.556" ry="18"/><text x="507" y="-157.8" font-family="Times,serif" font-size="14" text-anchor="middle">read_message</text></a></g></g><g id="edge3" class="edge"><title>3225051-&gt;3225047</title><path fill="none" stroke="#000" d="M476.334,-146.496C454.06,-135.961 423.698,-121.6 399.44,-110.127"/><polygon fill="#000" stroke="#000" points="400.672 -106.838 390.136 -105.726 397.679 -113.166 400.672 -106.838"/></g></g></svg>