<svg xmlns="http://www.w3.org/2000/svg" xmlns:xlink="http://www.w3.org/1999/xlink" width="396" height="188pt" viewBox="0 0 297 188"><g id="graph0" class="graph" transform="scale(1 1) rotate(0) translate(4 184)"><title>graph1</title><polygon fill="#fff" stroke="none" points="-4 4 -4 -184 293 -184 293 4 -4 4"/><g id="node1" class="node"><title>3225048</title><g id="a_node1"><a xlink:href="3225048.svg" xlink:title="create_message"><ellipse cx="65" cy="-162" fill="none" stroke="#000" stroke-width="2.5" rx="65.385" ry="18"/><text x="65" y="-157.8" font-family="Times,serif" font-size="14" text-anchor="middle">create_message</text></a></g></g><g id="node2" class="node"><title>3225046</title><ellipse cx="142" cy="-90" fill="none" stroke="#000" stroke-dasharray="5 2" rx="55.184" ry="18"/><text x="142" y="-85.8" font-family="Times,serif" font-size="14" text-anchor="middle">encrypt_sign</text></g><g id="edge1" class="edge"><title>3225048-&gt;3225046</title><path fill="none" stroke="#000" d="M83.2479,-144.411C93.1966,-135.367 105.667,-124.03 116.557,-114.13"/><polygon fill="#000" stroke="#000" points="119.104 -116.545 124.149 -107.228 114.395 -111.365 119.104 -116.545"/></g><g id="node4" class="node"><title>3224977</title><g id="a_node4"><a xlink:href="3224977.svg" xlink:title="pgp_pub_encrypt_sign_bytea"><ellipse cx="142" cy="-18" fill="none" stroke="#000" rx="114.601" ry="18"/><text x="142" y="-13.8" font-family="Times,serif" font-size="14" text-anchor="middle">pgp_pub_encrypt_sign_bytea</text></a></g></g><g id="edge3" class="edge"><title>3225046-&gt;3224977</title><path fill="none" stroke="#000" d="M142,-71.6966C142,-63.9827 142,-54.7125 142,-46.1124"/><polygon fill="#000" stroke="#000" points="145.5 -46.104 142 -36.104 138.5 -46.104 145.5 -46.104"/></g><g id="node3" class="node"><title>3225050</title><g id="a_node3"><a xlink:href="3225050.svg" xlink:title="receive_message"><ellipse cx="219" cy="-162" fill="none" stroke="#000" stroke-width="2.5" rx="70.018" ry="18"/><text x="219" y="-157.8" font-family="Times,serif" font-size="14" text-anchor="middle">receive_message</text></a></g></g><g id="edge2" class="edge"><title>3225050-&gt;3225046</title><path fill="none" stroke="#000" d="M200.752,-144.411C190.803,-135.367 178.333,-124.03 167.443,-114.13"/><polygon fill="#000" stroke="#000" points="169.605 -111.365 159.851 -107.228 164.896 -116.545 169.605 -111.365"/></g></g></svg>