<svg xmlns="http://www.w3.org/2000/svg" xmlns:xlink="http://www.w3.org/1999/xlink" width="833pt" height="188pt" viewBox="0 0 833 188"><g id="graph0" class="graph" transform="scale(1 1) rotate(0) translate(4 184)"><title>graph1</title><polygon fill="#fff" stroke="none" points="-4 4 -4 -184 829 -184 829 4 -4 4"/><g id="node1" class="node"><title>3225050</title><ellipse cx="296" cy="-162" fill="none" stroke="#000" stroke-dasharray="5 2" rx="70.018" ry="18"/><text x="296" y="-157.8" font-family="Times,serif" font-size="14" text-anchor="middle">receive_message</text></g><g id="node2" class="node"><title>3224994</title><g id="a_node2"><a xlink:href="3224994.svg" xlink:title="armor"><ellipse cx="34" cy="-90" fill="none" stroke="#000" rx="31.334" ry="18"/><text x="34" y="-85.8" font-family="Times,serif" font-size="14" text-anchor="middle">armor</text></a></g></g><g id="edge1" class="edge"><title>3225050-&gt;3224994</title><path fill="none" stroke="#000" d="M241.462,-150.641C196.083,-141.391 130.079,-126.466 74,-108 71.7625,-107.263 69.4759,-106.453 67.1855,-105.599"/><polygon fill="#000" stroke="#000" points="68.45 -102.335 57.864 -101.912 65.875 -108.845 68.45 -102.335"/></g><g id="node3" class="node"><title>3225046</title><g id="a_node3"><a xlink:href="3225046.svg" xlink:title="encrypt_sign"><ellipse cx="139" cy="-90" fill="none" stroke="#000" stroke-width="2.5" rx="55.184" ry="18"/><text x="139" y="-85.8" font-family="Times,serif" font-size="14" text-anchor="middle">encrypt_sign</text></a></g></g><g id="edge2" class="edge"><title>3225050-&gt;3225046</title><path fill="none" stroke="#000" d="M262.704,-146.155C238.414,-135.325 205.364,-120.589 179.536,-109.073"/><polygon fill="#000" stroke="#000" points="180.935 -105.865 170.376 -104.989 178.084 -112.258 180.935 -105.865"/></g><g id="node4" class="node"><title>3224995</title><g id="a_node4"><a xlink:href="3224995.svg" xlink:title="dearmor"><ellipse cx="252" cy="-90" fill="none" stroke="#000" stroke-width="2.5" rx="39.353" ry="18"/><text x="252" y="-85.8" font-family="Times,serif" font-size="14" text-anchor="middle">dearmor</text></a></g></g><g id="edge3" class="edge"><title>3225050-&gt;3224995</title><path fill="none" stroke="#000" d="M285.349,-144.055C280.16,-135.801 273.812,-125.701 268.052,-116.538"/><polygon fill="#000" stroke="#000" points="270.838 -114.393 262.553 -107.789 264.912 -118.118 270.838 -114.393"/></g><g id="node5" class="node"><title>3224946</title><g id="a_node5"><a xlink:href="3224946.svg" xlink:title="digest"><ellipse cx="341" cy="-90" fill="none" stroke="#000" rx="31.347" ry="18"/><text x="341" y="-85.8" font-family="Times,serif" font-size="14" text-anchor="middle">digest</text></a></g></g><g id="edge4" class="edge"><title>3225050-&gt;3224946</title><path fill="none" stroke="#000" d="M306.893,-144.055C312.334,-135.592 319.021,-125.19 325.028,-115.845"/><polygon fill="#000" stroke="#000" points="328.053 -117.611 330.517 -107.307 322.165 -113.826 328.053 -117.611"/></g><g id="node6" class="node"><title>3224947</title><g id="a_node6"><a xlink:href="3224947.svg" xlink:title="digest"><ellipse cx="421" cy="-90" fill="none" stroke="#000" rx="31.347" ry="18"/><text x="421" y="-85.8" font-family="Times,serif" font-size="14" text-anchor="middle">digest</text></a></g></g><g id="edge5" class="edge"><title>3225050-&gt;3224947</title><path fill="none" stroke="#000" d="M323.742,-145.465C343.451,-134.427 369.924,-119.603 390.273,-108.207"/><polygon fill="#000" stroke="#000" points="392.131 -111.178 399.146 -103.238 388.711 -105.07 392.131 -111.178"/></g><g id="node7" class="node"><title>3225047</title><g id="a_node7"><a xlink:href="3225047.svg" xlink:title="decrypt_verify"><ellipse cx="581" cy="-90" fill="none" stroke="#000" stroke-width="2.5" rx="62.242" ry="18"/><text x="581" y="-85.8" font-family="Times,serif" font-size="14" text-anchor="middle">decrypt_verify</text></a></g></g><g id="edge6" class="edge"><title>3225050-&gt;3225047</title><path fill="none" stroke="#000" d="M344.669,-149.046C394.853,-136.72 472.986,-117.53 525.532,-104.624"/><polygon fill="#000" stroke="#000" points="526.482 -107.995 535.358 -102.21 524.812 -101.197 526.482 -107.995"/></g><g id="node8" class="node"><title>3224977</title><g id="a_node8"><a xlink:href="3224977.svg" xlink:title="pgp_pub_encrypt_sign_bytea"><ellipse cx="114" cy="-18" fill="none" stroke="#000" rx="114.601" ry="18"/><text x="114" y="-13.8" font-family="Times,serif" font-size="14" text-anchor="middle">pgp_pub_encrypt_sign_bytea</text></a></g></g><g id="edge7" class="edge"><title>3225046-&gt;3224977</title><path fill="none" stroke="#000" d="M132.948,-72.055C130.134,-64.1762 126.72,-54.6165 123.569,-45.794"/><polygon fill="#000" stroke="#000" points="126.829 -44.516 120.17 -36.275 120.237 -46.87 126.829 -44.516"/></g><g id="node9" class="node"><title>3224986</title><g id="a_node9"><a xlink:href="3224986.svg" xlink:title="pgp_pub_decrypt_verify_bytea"><ellipse cx="368" cy="-18" fill="none" stroke="#000" rx="121.162" ry="18"/><text x="368" y="-13.8" font-family="Times,serif" font-size="14" text-anchor="middle">pgp_pub_decrypt_verify_bytea</text></a></g></g><g id="edge8" class="edge"><title>3225047-&gt;3224986</title><path fill="none" stroke="#000" d="M541.436,-75.9976C508.745,-65.2544 461.906,-49.861 425.142,-37.779"/><polygon fill="#000" stroke="#000" points="426.137 -34.422 415.545 -34.625 423.952 -41.072 426.137 -34.422"/></g><g id="node10" class="node"><title>3224992</title><g id="a_node10"><a xlink:href="3224992.svg" xlink:title="pgp_pub_signature_keys"><ellipse cx="606" cy="-18" fill="none" stroke="#000" rx="98.293" ry="18"/><text x="606" y="-13.8" font-family="Times,serif" font-size="14" text-anchor="middle">pgp_pub_signature_keys</text></a></g></g><g id="edge9" class="edge"><title>3225047-&gt;3224992</title><path fill="none" stroke="#000" d="M587.052,-72.055C589.866,-64.1762 593.28,-54.6165 596.431,-45.794"/><polygon fill="#000" stroke="#000" points="599.763 -46.87 599.83 -36.275 593.171 -44.516 599.763 -46.87"/></g><g id="node11" class="node"><title>3224989</title><g id="a_node11"><a xlink:href="3224989.svg" xlink:title="pgp_key_id"><ellipse cx="774" cy="-18" fill="none" stroke="#000" rx="51.296" ry="18"/><text x="774" y="-13.8" font-family="Times,serif" font-size="14" text-anchor="middle">pgp_key_id</text></a></g></g><g id="edge10" class="edge"><title>3225047-&gt;3224989</title><path fill="none" stroke="#000" d="M618.212,-75.5033C650.115,-63.9323 696.133,-47.2418 729.884,-35.0004"/><polygon fill="#000" stroke="#000" points="731.288 -38.215 739.495 -31.515 728.901 -31.634 731.288 -38.215"/></g></g></svg>