<svg xmlns="http://www.w3.org/2000/svg" xmlns:xlink="http://www.w3.org/1999/xlink" width="586pt" height="188pt" viewBox="0 0 586 188"><g id="graph0" class="graph" transform="scale(1 1) rotate(0) translate(4 184)"><title>graph1</title><polygon fill="#fff" stroke="none" points="-4 4 -4 -184 582 -184 582 4 -4 4"/><g id="node1" class="node"><title>3225052</title><ellipse cx="299" cy="-162" fill="none" stroke="#000" stroke-dasharray="5 2" rx="97.032" ry="18"/><text x="299" y="-157.8" font-family="Times,serif" font-size="14" text-anchor="middle">decode_delivery_receipt</text></g><g id="node2" class="node"><title>3224995</title><g id="a_node2"><a xlink:href="3224995.svg" xlink:title="dearmor"><ellipse cx="239" cy="-90" fill="none" stroke="#000" stroke-width="2.5" rx="39.353" ry="18"/><text x="239" y="-85.8" font-family="Times,serif" font-size="14" text-anchor="middle">dearmor</text></a></g></g><g id="edge1" class="edge"><title>3225052-&gt;3224995</title><path fill="none" stroke="#000" d="M284.476,-144.055C276.997,-135.33 267.752,-124.544 259.555,-114.981"/><polygon fill="#000" stroke="#000" points="262.143 -112.622 252.977 -107.307 256.828 -117.177 262.143 -112.622"/></g><g id="node3" class="node"><title>3225047</title><g id="a_node3"><a xlink:href="3225047.svg" xlink:title="decrypt_verify"><ellipse cx="359" cy="-90" fill="none" stroke="#000" stroke-width="2.5" rx="62.242" ry="18"/><text x="359" y="-85.8" font-family="Times,serif" font-size="14" text-anchor="middle">decrypt_verify</text></a></g></g><g id="edge2" class="edge"><title>3225052-&gt;3225047</title><path fill="none" stroke="#000" d="M313.524,-144.055C320.894,-135.457 329.98,-124.857 338.088,-115.397"/><polygon fill="#000" stroke="#000" points="340.759 -117.659 344.609 -107.789 335.444 -113.104 340.759 -117.659"/></g><g id="node4" class="node"><title>3224986</title><g id="a_node4"><a xlink:href="3224986.svg" xlink:title="pgp_pub_decrypt_verify_bytea"><ellipse cx="121" cy="-18" fill="none" stroke="#000" rx="121.162" ry="18"/><text x="121" y="-13.8" font-family="Times,serif" font-size="14" text-anchor="middle">pgp_pub_decrypt_verify_bytea</text></a></g></g><g id="edge3" class="edge"><title>3225047-&gt;3224986</title><path fill="none" stroke="#000" d="M316.998,-76.6465C279.733,-65.6863 224.814,-49.5336 182.583,-37.1128"/><polygon fill="#000" stroke="#000" points="183.541 -33.746 172.96 -34.282 181.566 -40.462 183.541 -33.746"/></g><g id="node5" class="node"><title>3224992</title><g id="a_node5"><a xlink:href="3224992.svg" xlink:title="pgp_pub_signature_keys"><ellipse cx="359" cy="-18" fill="none" stroke="#000" rx="98.293" ry="18"/><text x="359" y="-13.8" font-family="Times,serif" font-size="14" text-anchor="middle">pgp_pub_signature_keys</text></a></g></g><g id="edge4" class="edge"><title>3225047-&gt;3224992</title><path fill="none" stroke="#000" d="M359,-71.6966C359,-63.9827 359,-54.7125 359,-46.1124"/><polygon fill="#000" stroke="#000" points="362.5 -46.104 359 -36.104 355.5 -46.104 362.5 -46.104"/></g><g id="node6" class="node"><title>3224989</title><g id="a_node6"><a xlink:href="3224989.svg" xlink:title="pgp_key_id"><ellipse cx="527" cy="-18" fill="none" stroke="#000" rx="51.296" ry="18"/><text x="527" y="-13.8" font-family="Times,serif" font-size="14" text-anchor="middle">pgp_key_id</text></a></g></g><g id="edge5" class="edge"><title>3225047-&gt;3224989</title><path fill="none" stroke="#000" d="M392.997,-74.8345C419.873,-63.6361 457.487,-47.9638 486.025,-36.0729"/><polygon fill="#000" stroke="#000" points="487.442 -39.274 495.326 -32.197 484.75 -32.813 487.442 -39.274"/></g></g></svg>