<svg xmlns="http://www.w3.org/2000/svg" xmlns:xlink="http://www.w3.org/1999/xlink" width="168" height="188pt" viewBox="0 0 126 188"><g id="graph0" class="graph" transform="scale(1 1) rotate(0) translate(4 184)"><title>graph1</title><polygon fill="#fff" stroke="none" points="-4 4 -4 -184 122 -184 122 4 -4 4"/><g id="node1" class="node"><title>3225051</title><g id="a_node1"><a xlink:href="3225051.svg" xlink:title="read_message"><ellipse cx="59" cy="-162" fill="none" stroke="#000" stroke-width="2.5" rx="59.556" ry="18"/><text x="59" y="-157.8" font-family="Times,serif" font-size="14" text-anchor="middle">read_message</text></a></g></g><g id="node2" class="node"><title>3225049</title><ellipse cx="59" cy="-90" fill="none" stroke="#000" stroke-dasharray="5 2" rx="54.938" ry="18"/><text x="59" y="-85.8" font-family="Times,serif" font-size="14" text-anchor="middle">get_message</text></g><g id="edge1" class="edge"><title>3225051-&gt;3225049</title><path fill="none" stroke="#000" d="M59,-143.697C59,-135.983 59,-126.712 59,-118.112"/><polygon fill="#000" stroke="#000" points="62.5 -118.104 59 -108.104 55.5 -118.104 62.5 -118.104"/></g><g id="node3" class="node"><title>3224994</title><g id="a_node3"><a xlink:href="3224994.svg" xlink:title="armor"><ellipse cx="59" cy="-18" fill="none" stroke="#000" rx="31.334" ry="18"/><text x="59" y="-13.8" font-family="Times,serif" font-size="14" text-anchor="middle">armor</text></a></g></g><g id="edge2" class="edge"><title>3225049-&gt;3224994</title><path fill="none" stroke="#000" d="M59,-71.6966C59,-63.9827 59,-54.7125 59,-46.1124"/><polygon fill="#000" stroke="#000" points="62.5 -46.104 59 -36.104 55.5 -46.104 62.5 -46.104"/></g></g></svg>